<!-- Generated by IcoMoon.io -->
<svg version="1.1" xmlns="http://www.w3.org/2000/svg" width="32" height="32" viewBox="0 0 32 32">
<title>appetizers</title>
<path fill="#fff" d="M7.947 24.212c0.242 0.243 0.242 0.636 0 0.878l-6.729 6.729c-0.121 0.121-0.28 0.182-0.439 0.182s-0.318-0.061-0.439-0.182c-0.242-0.242-0.242-0.635 0-0.878l6.729-6.729c0.242-0.242 0.635-0.242 0.877 0zM30.494 1.349c1.795 1.795 1.796 4.716 0 6.512l-15.469 15.469c-0.869 0.87-2.026 1.349-3.256 1.349s-2.386-0.479-3.256-1.349c-1.795-1.796-1.795-4.716 0-6.511l15.469-15.469c0.87-0.87 2.026-1.349 3.256-1.349s2.386 0.479 3.256 1.349zM29.617 6.982c0.636-0.635 0.985-1.48 0.985-2.378s-0.35-1.743-0.985-2.378c-0.635-0.635-1.48-0.985-2.378-0.985s-1.743 0.35-2.378 0.985l-15.469 15.469c-1.311 1.312-1.311 3.445 0 4.756 0.635 0.635 1.48 0.985 2.378 0.985s1.743-0.35 2.378-0.985zM28.532 4.773c0.242 0.242 0.242 0.635 0 0.878-0.741 0.741-1.553 0.717-2.146 0.7-0.571-0.016-0.885-0.009-1.231 0.337s-0.354 0.66-0.337 1.232c0.017 0.593 0.041 1.404-0.7 2.146s-1.553 0.717-2.145 0.7c-0.571-0.017-0.885-0.010-1.231 0.337s-0.353 0.66-0.337 1.231c0.017 0.593 0.041 1.404-0.7 2.145s-1.553 0.717-2.145 0.7c-0.571-0.017-0.885-0.009-1.231 0.337s-0.353 0.66-0.337 1.231c0.017 0.593 0.041 1.404-0.7 2.146s-1.552 0.717-2.145 0.699c-0.571-0.017-0.885-0.010-1.231 0.337-0.121 0.121-0.28 0.182-0.439 0.182s-0.318-0.061-0.439-0.182c-0.242-0.242-0.242-0.635 0-0.878 0.741-0.741 1.553-0.717 2.145-0.7 0.571 0.017 0.885 0.010 1.231-0.337s0.354-0.66 0.337-1.231c-0.017-0.593-0.041-1.404 0.7-2.146s1.553-0.717 2.146-0.7c0.571 0.017 0.885 0.010 1.231-0.337s0.353-0.66 0.337-1.231c-0.017-0.593-0.041-1.404 0.7-2.146s1.552-0.717 2.145-0.7c0.571 0.017 0.885 0.009 1.231-0.337s0.354-0.66 0.337-1.232c-0.017-0.593-0.041-1.404 0.7-2.145s1.552-0.717 2.145-0.7c0.571 0.017 0.885 0.010 1.231-0.337 0.242-0.242 0.635-0.242 0.877-0.001z"></path>
</svg>
