<!-- Generated by IcoMoon.io -->
<svg version="1.1" xmlns="http://www.w3.org/2000/svg" width="32" height="32" viewBox="0 0 32 32">
<title>desserts</title>
<path fill="#fff" d="M31.758 14.62c0.042 0.104 0.242 0.633 0.242 1.177 0 2.021-0.070 9.72-0.070 9.749 0 0.67-0.428 0.878-0.787 0.934-1.007 0.17-4.223 0.712-8.197 1.383-9.055 1.527-21.456 3.619-21.832 3.684-0.063 0.011-0.127 0.017-0.189 0.017-0.528 0-0.926-0.402-0.926-0.934v-9.551c0-0.841 0.138-1.373 0.959-2.221 0.087-0.090 0.297-0.344 12.115-10.316-0.128-0.426-0.197-0.877-0.197-1.344 0-2.583 2.101-4.684 4.684-4.684 0.808 0 1.57 0.206 2.234 0.568 0.052-0.697-0.025-1.437-0.373-1.661-0.248-0.159-0.32-0.489-0.16-0.737s0.49-0.32 0.737-0.16c0.735 0.473 0.894 1.451 0.879 2.271 0.463-0.291 1.003-0.535 1.467-0.491 0.316 0.030 0.585 0.174 0.761 0.43 0.224 0.324 0.028 0.895-0.421 0.727-0.17-0.064-0.374-0.154-0.722-0.056-0.275 0.077-0.42 0.187-0.969 0.612 0.775 0.836 1.25 1.954 1.25 3.181 0 0.287-0.027 0.567-0.077 0.84 3.46 1.098 6.486 2.999 9 5.655 0.365 0.386 0.549 0.822 0.591 0.928zM17.56 3.58c-1.994 0-3.617 1.622-3.617 3.617s1.623 3.617 3.617 3.617c1.994 0 3.617-1.623 3.617-3.617s-1.623-3.617-3.617-3.617zM2.825 18.627c-0.476 0.431-0.084 0.384 0.222 0.325 0.279-0.054 22.816-3.764 26.753-4.438 0.625-0.107 0.285-0.409 0.132-0.56-2.291-2.274-5.002-3.918-8.075-4.896-0.721 1.659-2.376 2.822-4.297 2.822-1.721 0-3.227-0.933-4.041-2.32-6.345 5.354-9.331 7.894-10.694 9.067zM30.867 24.548c0.008-2.277 0.026-8.13 0.026-8.548 0-0.517-0.351-0.531-0.748-0.453s-28.41 4.705-28.41 4.705-0.523 0.076-0.523 0.573c0 0.406-0.097 6.559-0.133 8.821-0.008 0.513 0.202 0.783 0.591 0.723 2.853-0.437 13.233-2.233 21.097-3.56 3.044-0.513 5.64-0.97 7.149-1.206 0.84-0.131 0.948-0.519 0.95-1.055zM11.191 13.236c1.263 0 2.252 0.789 2.252 1.797s-0.989 1.797-2.252 1.797-2.252-0.789-2.252-1.797c0-1.007 0.989-1.797 2.252-1.797zM11.191 15.763c0.698 0 1.184-0.385 1.184-0.73s-0.486-0.73-1.184-0.73c-0.698 0-1.185 0.385-1.185 0.73s0.487 0.73 1.185 0.73zM23.212 10.813c1.262 0 2.252 0.789 2.252 1.797s-0.989 1.797-2.252 1.797c-1.263 0-2.252-0.789-2.252-1.797s0.989-1.797 2.252-1.797zM23.212 13.34c0.698 0 1.185-0.384 1.185-0.73s-0.487-0.73-1.185-0.73-1.184 0.384-1.184 0.73c0 0.345 0.486 0.73 1.184 0.73zM17.024 12.186c1.262 0 2.251 0.789 2.251 1.797s-0.989 1.797-2.251 1.797c-1.263 0-2.252-0.789-2.252-1.797s0.989-1.797 2.252-1.797zM17.024 14.713c0.698 0 1.184-0.385 1.184-0.73s-0.486-0.73-1.184-0.73c-0.698 0-1.185 0.385-1.185 0.73s0.487 0.73 1.185 0.73zM30.139 17.976c0.213 0.203 0.223 0.539 0.021 0.752-0.68 0.72-2.427 1.794-4.173 0.705-1.168-0.728-1.869-0.891-3.251 0.76-1.428 1.706-2.594 1.128-3.446 0.705-0.878-0.435-1.572-0.779-2.919 0.524-1.638 1.583-2.733 0.871-3.532 0.35-0.774-0.504-1.285-0.837-2.484 0.253-0.262 0.238-0.467 0.454-0.648 0.646-0.436 0.46-0.812 0.857-1.451 0.88-0.528 0.019-1.144-0.211-2.358-0.88-0.57-0.314-1.076-0.389-1.548-0.227-0.908 0.31-1.406 1.41-1.411 1.421-0.087 0.201-0.284 0.322-0.49 0.322-0.071 0-0.143-0.014-0.212-0.044-0.27-0.117-0.395-0.431-0.277-0.702 0.027-0.063 0.681-1.541 2.045-2.007 0.762-0.26 1.572-0.158 2.408 0.303 0.685 0.377 1.436 0.762 1.804 0.748 0.188-0.007 0.329-0.139 0.716-0.547 0.184-0.194 0.414-0.437 0.705-0.701 1.808-1.644 2.95-0.9 3.784-0.357 0.762 0.496 1.182 0.769 2.209-0.223 1.889-1.826 3.187-1.182 4.134-0.712 0.843 0.417 1.265 0.627 2.154-0.434 1.552-1.853 2.807-2.119 4.634-0.98 1.437 0.896 2.778-0.475 2.834-0.534 0.204-0.212 0.541-0.221 0.754-0.018zM30.341 21.849c0.213 0.203 0.223 0.539 0.021 0.752-0.68 0.72-2.428 1.794-4.173 0.705-1.168-0.728-1.869-0.891-3.251 0.76-1.428 1.705-2.595 1.127-3.446 0.705-0.878-0.435-1.571-0.779-2.919 0.524-1.638 1.584-2.733 0.871-3.532 0.35-0.774-0.504-1.285-0.837-2.484 0.252-0.261 0.238-0.467 0.454-0.648 0.645-0.436 0.46-0.812 0.856-1.452 0.88-0.527 0.019-1.144-0.211-2.357-0.88-0.568-0.313-1.073-0.388-1.543-0.229-0.915 0.309-1.411 1.413-1.416 1.424-0.088 0.2-0.284 0.319-0.489 0.319-0.071 0-0.144-0.014-0.213-0.045-0.269-0.118-0.393-0.43-0.276-0.7 0.027-0.063 0.681-1.541 2.045-2.006 0.762-0.26 1.572-0.158 2.408 0.303 0.685 0.377 1.435 0.762 1.804 0.748 0.188-0.007 0.329-0.14 0.716-0.548 0.184-0.194 0.414-0.437 0.705-0.701 1.808-1.644 2.95-0.9 3.784-0.357 0.762 0.496 1.182 0.77 2.208-0.223 1.889-1.826 3.187-1.182 4.134-0.712 0.842 0.417 1.265 0.627 2.154-0.434 1.552-1.853 2.808-2.119 4.634-0.98 1.437 0.896 2.778-0.475 2.834-0.534 0.204-0.212 0.541-0.221 0.754-0.018z"></path>
</svg>
