<!-- Generated by IcoMoon.io -->
<svg version="1.1" xmlns="http://www.w3.org/2000/svg" width="32" height="32" viewBox="0 0 32 32">
<title>drink</title>
<path fill="#fff" d="M23.572 14.243c-1.416 1.216-3.267 2.039-5.371 2.395v10.695c1.914 0.094 3.653 0.307 4.94 0.61 1.756 0.412 2.573 0.952 2.573 1.697 0 0.819-0.997 1.396-3.139 1.818-1.758 0.346-4.082 0.538-6.551 0.542 0 0-0.040 0-0.049 0v-0c-2.469-0.004-4.794-0.196-6.551-0.542-2.142-0.422-3.139-1-3.139-1.818 0-0.745 0.818-1.285 2.574-1.697 1.288-0.303 3.027-0.516 4.941-0.61v-10.695c-2.104-0.355-3.955-1.179-5.372-2.395-1.632-1.401-2.596-3.261-2.788-5.379-0.448-4.923 1.871-8.473 1.97-8.621 0.101-0.152 0.271-0.243 0.453-0.243h15.874c0.182 0 0.352 0.091 0.453 0.243 0.099 0.149 2.418 3.699 1.971 8.621-0.193 2.118-1.157 3.978-2.788 5.379zM17.112 29.249l-0.002-13.088c0-0.301 0.244-0.544 0.544-0.544 0.008 0 0.015 0.001 0.023 0.001 0.001-0 0.001-0 0.002-0 3.415-0.481 7.204-2.533 7.597-6.852 0.348-3.831-1.162-6.828-1.647-7.677h-15.259c-0.485 0.85-1.995 3.846-1.647 7.677 0.393 4.319 4.182 6.371 7.597 6.852 0.001 0 0.001 0 0.002 0 0.008-0 0.015-0.001 0.023-0.001 0.3 0 0.544 0.244 0.544 0.544l-0.001 13.015c0 0.3-0.244 0.544-0.544 0.544s-0.544-0.244-0.544-0.544v-0.755c-1.664 0.084-3.2 0.262-4.374 0.509-1.386 0.292-1.857 0.585-2.005 0.71 0.202 0.171 0.89 0.518 2.565 0.815 1.651 0.292 3.785 0.454 6.014 0.456 2.229-0.003 4.363-0.164 6.014-0.456 1.675-0.296 2.362-0.644 2.565-0.815-0.147-0.125-0.619-0.418-2.005-0.71-1.173-0.247-2.709-0.425-4.373-0.509v0.827c0 0.301-0.244 0.544-0.544 0.544s-0.544-0.244-0.544-0.544zM23.483 7.88c0.298 0.003 0.537 0.261 0.537 0.56 0 0.067-0.012 1.665-1.060 3.268-0.935 1.431-3.84 3.147-6.984 3.147s-6.001-1.716-6.936-3.147c-1.048-1.603-1.060-3.2-1.060-3.268 0-0.299 0.241-0.541 0.539-0.544l10.981-0.016c0.3 0.003 0.542 0.249 0.539 0.549-0.003 0.299-0.246 0.539-0.544 0.539l-10.374 0.010c0.213 1.349 1.305 4.74 6.88 4.861 5.575-0.121 6.666-3.512 6.88-4.861l-0.611-0.010c-0.301-0.004-0.541-0.25-0.538-0.55s0.249-0.543 0.55-0.538h1.202z"></path>
</svg>
