<!-- Generated by IcoMoon.io -->
<svg version="1.1" xmlns="http://www.w3.org/2000/svg" width="32" height="32" viewBox="0 0 32 32">
<title>main-meals</title>
<path fill="#fff" d="M32 19.406c0 1.418-0.924 2.637-2.276 3.105 0.074 0.28 0.207 2.296 0.168 3.33-0.069 1.834-0.334 2.59-0.949 2.698-0.184 0.032-25.703 0.032-25.887 0-0.614-0.108-0.88-0.864-0.949-2.698-0.039-1.033 0.094-3.049 0.168-3.33-1.352-0.468-2.276-1.687-2.276-3.105 0-1.541 1.116-2.839 2.622-3.204-0.105-0.399-0.148-0.931-0.127-1.594 0.014-0.534 0.172-3.348 1.928-6.012 1.002-1.521 2.346-2.727 3.994-3.585 2.004-1.043 4.468-1.572 7.323-1.572h0.521c2.856 0 5.32 0.529 7.323 1.572 1.648 0.858 2.992 2.064 3.994 3.585 1.755 2.664 1.914 5.478 1.928 6.012 0.021 0.663-0.022 1.195-0.127 1.594 1.505 0.365 2.622 1.664 2.622 3.204zM3.492 14.636c-0.022 0.712 0.061 1.257 0.144 1.463h24.728c0.083-0.206 0.166-0.751 0.144-1.463-0.027-1.044-0.601-10.2-12.247-10.2h-0.521c-11.646 0-12.22 9.156-12.247 10.2zM28.902 25.58c0.025-0.967-0.129-2.792-0.173-2.915h-25.458c-0.044 0.123-0.198 1.948-0.173 2.915 0.035 1.341 0.176 1.827 0.242 1.984 0.532 0.038 24.788 0.038 25.32 0 0.066-0.157 0.207-0.643 0.242-1.984zM29.026 21.667c1.152-0.222 1.976-1.156 1.976-2.261 0-1.273-1.116-2.309-2.488-2.309h-25.029c-1.372 0-2.488 1.036-2.488 2.309 0 1.105 0.824 2.039 1.976 2.261h26.052z"></path>
</svg>
