<!-- Generated by IcoMoon.io -->
<svg version="1.1" xmlns="http://www.w3.org/2000/svg" width="32" height="32" viewBox="0 0 32 32">
<title>specialites</title>
<path fill="#fff" d="M23.682 8.185c-1.382 1.762 0.247 4.347 0.263 4.372 0.159 0.246 0.088 0.573-0.157 0.732-0.089 0.057-0.188 0.085-0.287 0.085-0.174 0-0.344-0.085-0.445-0.242-0.085-0.131-2.057-3.242-0.207-5.6 1.284-1.638-0.529-3.866-0.555-3.897-0.187-0.224-0.157-0.557 0.067-0.745s0.558-0.158 0.745 0.067c0.024 0.029 0.596 0.719 0.961 1.681 0.511 1.347 0.378 2.574-0.386 3.548zM27.234 8.185c-1.382 1.762 0.247 4.347 0.263 4.372 0.159 0.246 0.088 0.573-0.157 0.732-0.089 0.057-0.188 0.085-0.287 0.085-0.174 0-0.344-0.085-0.445-0.242-0.085-0.131-2.057-3.242-0.207-5.6 1.287-1.641-0.536-3.875-0.555-3.897-0.187-0.224-0.157-0.557 0.067-0.745s0.558-0.158 0.745 0.067c0.024 0.029 0.596 0.719 0.961 1.681 0.511 1.347 0.378 2.574-0.386 3.548zM5.013 8.43c-1.382 1.762 0.247 4.347 0.263 4.372 0.159 0.245 0.088 0.573-0.157 0.732-0.089 0.057-0.188 0.085-0.287 0.085-0.174 0-0.344-0.085-0.445-0.242-0.085-0.131-2.057-3.242-0.207-5.6 1.287-1.641-0.536-3.875-0.555-3.897-0.187-0.224-0.157-0.557 0.067-0.745s0.558-0.158 0.745 0.066c0.024 0.029 0.596 0.719 0.961 1.681 0.511 1.347 0.378 2.574-0.386 3.548zM8.565 8.43c-1.382 1.762 0.247 4.347 0.263 4.372 0.159 0.245 0.088 0.573-0.157 0.732-0.089 0.057-0.188 0.085-0.287 0.085-0.174 0-0.344-0.085-0.445-0.242-0.085-0.131-2.057-3.242-0.207-5.6 1.287-1.641-0.536-3.875-0.555-3.897-0.187-0.224-0.157-0.557 0.067-0.745s0.558-0.158 0.745 0.066c0.024 0.029 0.596 0.719 0.961 1.681 0.511 1.347 0.378 2.574-0.386 3.548zM30.243 25.058c0.968 0 1.757 0.788 1.757 1.757v0.662c0 0.969-0.788 1.758-1.757 1.758h-28.487c-0.969 0-1.757-0.788-1.757-1.758v-0.662c0-0.969 0.788-1.757 1.757-1.757h1.123c0.264-6.602 5.433-11.962 11.954-12.528v-0.539c-0.662-0.396-1.073-1.106-1.073-1.895 0-1.222 0.994-2.216 2.216-2.216h0.048c1.222 0 2.216 0.994 2.216 2.216 0 0.789-0.411 1.499-1.073 1.895v0.539c6.521 0.566 11.691 5.926 11.954 12.528h1.122zM14.818 10.096c0 0.477 0.289 0.899 0.737 1.075 0.202 0.080 0.336 0.275 0.336 0.493v0.817h0.217v-0.817c0-0.218 0.133-0.413 0.336-0.493 0.448-0.176 0.737-0.598 0.737-1.075 0-0.638-0.519-1.157-1.158-1.157h-0.048c-0.638 0-1.158 0.519-1.158 1.157zM30.243 28.175c0.385 0 0.698-0.314 0.698-0.699h-0v-0.662c0-0.385-0.313-0.698-0.698-0.698l-5.176 0.001c-0.292 0-0.529-0.237-0.529-0.529s0.237-0.529 0.529-0.529h2.994c-0.277-6.384-5.543-11.494-11.988-11.52h-0.146c-6.444 0.026-11.711 5.137-11.988 11.52h17.705c0.292 0 0.529 0.237 0.529 0.529s-0.237 0.529-0.529 0.529h-19.004c-0.005 0-0.009-0.001-0.014-0.001h-0.87c-0.385 0-0.698 0.313-0.698 0.698v0.662c0 0.386 0.313 0.699 0.698 0.699h28.487z"></path>
</svg>
