<?xml version="1.0" encoding="utf-8"?>
<svg version="1.1" xmlns="http://www.w3.org/2000/svg" xmlns:xlink="http://www.w3.org/1999/xlink" width="40" height="40" >
<symbol id="appetizers" width="40" height="40" x="0" y="0" viewBox="0 0 32 32">
<path d="M7.947 24.212c0.242 0.243 0.242 0.636 0 0.878l-6.729 6.729c-0.121 0.121-0.28 0.182-0.439 0.182s-0.318-0.061-0.439-0.182c-0.242-0.242-0.242-0.635 0-0.878l6.729-6.729c0.242-0.242 0.635-0.242 0.877 0zM30.494 1.349c1.795 1.795 1.796 4.716 0 6.512l-15.469 15.469c-0.869 0.87-2.026 1.349-3.256 1.349s-2.386-0.479-3.256-1.349c-1.795-1.796-1.795-4.716 0-6.511l15.469-15.469c0.87-0.87 2.026-1.349 3.256-1.349s2.386 0.479 3.256 1.349zM29.617 6.982c0.636-0.635 0.985-1.48 0.985-2.378s-0.35-1.743-0.985-2.378c-0.635-0.635-1.48-0.985-2.378-0.985s-1.743 0.35-2.378 0.985l-15.469 15.469c-1.311 1.312-1.311 3.445 0 4.756 0.635 0.635 1.48 0.985 2.378 0.985s1.743-0.35 2.378-0.985zM28.532 4.773c0.242 0.242 0.242 0.635 0 0.878-0.741 0.741-1.553 0.717-2.146 0.7-0.571-0.016-0.885-0.009-1.231 0.337s-0.354 0.66-0.337 1.232c0.017 0.593 0.041 1.404-0.7 2.146s-1.553 0.717-2.145 0.7c-0.571-0.017-0.885-0.010-1.231 0.337s-0.353 0.66-0.337 1.231c0.017 0.593 0.041 1.404-0.7 2.145s-1.553 0.717-2.145 0.7c-0.571-0.017-0.885-0.009-1.231 0.337s-0.353 0.66-0.337 1.231c0.017 0.593 0.041 1.404-0.7 2.146s-1.552 0.717-2.145 0.699c-0.571-0.017-0.885-0.010-1.231 0.337-0.121 0.121-0.28 0.182-0.439 0.182s-0.318-0.061-0.439-0.182c-0.242-0.242-0.242-0.635 0-0.878 0.741-0.741 1.553-0.717 2.145-0.7 0.571 0.017 0.885 0.010 1.231-0.337s0.354-0.66 0.337-1.231c-0.017-0.593-0.041-1.404 0.7-2.146s1.553-0.717 2.146-0.7c0.571 0.017 0.885 0.010 1.231-0.337s0.353-0.66 0.337-1.231c-0.017-0.593-0.041-1.404 0.7-2.146s1.552-0.717 2.145-0.7c0.571 0.017 0.885 0.009 1.231-0.337s0.354-0.66 0.337-1.232c-0.017-0.593-0.041-1.404 0.7-2.145s1.552-0.717 2.145-0.7c0.571 0.017 0.885 0.010 1.231-0.337 0.242-0.242 0.635-0.242 0.877-0.001z"></path>
</symbol>
<symbol id="desserts" width="40" height="40" x="0" y="0" viewBox="0 0 32 32">
<path d="M31.758 14.62c0.042 0.104 0.242 0.633 0.242 1.177 0 2.021-0.070 9.72-0.070 9.749 0 0.67-0.428 0.878-0.787 0.934-1.007 0.17-4.223 0.712-8.197 1.383-9.055 1.527-21.456 3.619-21.832 3.684-0.063 0.011-0.127 0.017-0.189 0.017-0.528 0-0.926-0.402-0.926-0.934v-9.551c0-0.841 0.138-1.373 0.959-2.221 0.087-0.090 0.297-0.344 12.115-10.316-0.128-0.426-0.197-0.877-0.197-1.344 0-2.583 2.101-4.684 4.684-4.684 0.808 0 1.57 0.206 2.234 0.568 0.052-0.697-0.025-1.437-0.373-1.661-0.248-0.159-0.32-0.489-0.16-0.737s0.49-0.32 0.737-0.16c0.735 0.473 0.894 1.451 0.879 2.271 0.463-0.291 1.003-0.535 1.467-0.491 0.316 0.030 0.585 0.174 0.761 0.43 0.224 0.324 0.028 0.895-0.421 0.727-0.17-0.064-0.374-0.154-0.722-0.056-0.275 0.077-0.42 0.187-0.969 0.612 0.775 0.836 1.25 1.954 1.25 3.181 0 0.287-0.027 0.567-0.077 0.84 3.46 1.098 6.486 2.999 9 5.655 0.365 0.386 0.549 0.822 0.591 0.928zM17.56 3.58c-1.994 0-3.617 1.622-3.617 3.617s1.623 3.617 3.617 3.617c1.994 0 3.617-1.623 3.617-3.617s-1.623-3.617-3.617-3.617zM2.825 18.627c-0.476 0.431-0.084 0.384 0.222 0.325 0.279-0.054 22.816-3.764 26.753-4.438 0.625-0.107 0.285-0.409 0.132-0.56-2.291-2.274-5.002-3.918-8.075-4.896-0.721 1.659-2.376 2.822-4.297 2.822-1.721 0-3.227-0.933-4.041-2.32-6.345 5.354-9.331 7.894-10.694 9.067zM30.867 24.548c0.008-2.277 0.026-8.13 0.026-8.548 0-0.517-0.351-0.531-0.748-0.453s-28.41 4.705-28.41 4.705-0.523 0.076-0.523 0.573c0 0.406-0.097 6.559-0.133 8.821-0.008 0.513 0.202 0.783 0.591 0.723 2.853-0.437 13.233-2.233 21.097-3.56 3.044-0.513 5.64-0.97 7.149-1.206 0.84-0.131 0.948-0.519 0.95-1.055zM11.191 13.236c1.263 0 2.252 0.789 2.252 1.797s-0.989 1.797-2.252 1.797-2.252-0.789-2.252-1.797c0-1.007 0.989-1.797 2.252-1.797zM11.191 15.763c0.698 0 1.184-0.385 1.184-0.73s-0.486-0.73-1.184-0.73c-0.698 0-1.185 0.385-1.185 0.73s0.487 0.73 1.185 0.73zM23.212 10.813c1.262 0 2.252 0.789 2.252 1.797s-0.989 1.797-2.252 1.797c-1.263 0-2.252-0.789-2.252-1.797s0.989-1.797 2.252-1.797zM23.212 13.34c0.698 0 1.185-0.384 1.185-0.73s-0.487-0.73-1.185-0.73-1.184 0.384-1.184 0.73c0 0.345 0.486 0.73 1.184 0.73zM17.024 12.186c1.262 0 2.251 0.789 2.251 1.797s-0.989 1.797-2.251 1.797c-1.263 0-2.252-0.789-2.252-1.797s0.989-1.797 2.252-1.797zM17.024 14.713c0.698 0 1.184-0.385 1.184-0.73s-0.486-0.73-1.184-0.73c-0.698 0-1.185 0.385-1.185 0.73s0.487 0.73 1.185 0.73zM30.139 17.976c0.213 0.203 0.223 0.539 0.021 0.752-0.68 0.72-2.427 1.794-4.173 0.705-1.168-0.728-1.869-0.891-3.251 0.76-1.428 1.706-2.594 1.128-3.446 0.705-0.878-0.435-1.572-0.779-2.919 0.524-1.638 1.583-2.733 0.871-3.532 0.35-0.774-0.504-1.285-0.837-2.484 0.253-0.262 0.238-0.467 0.454-0.648 0.646-0.436 0.46-0.812 0.857-1.451 0.88-0.528 0.019-1.144-0.211-2.358-0.88-0.57-0.314-1.076-0.389-1.548-0.227-0.908 0.31-1.406 1.41-1.411 1.421-0.087 0.201-0.284 0.322-0.49 0.322-0.071 0-0.143-0.014-0.212-0.044-0.27-0.117-0.395-0.431-0.277-0.702 0.027-0.063 0.681-1.541 2.045-2.007 0.762-0.26 1.572-0.158 2.408 0.303 0.685 0.377 1.436 0.762 1.804 0.748 0.188-0.007 0.329-0.139 0.716-0.547 0.184-0.194 0.414-0.437 0.705-0.701 1.808-1.644 2.95-0.9 3.784-0.357 0.762 0.496 1.182 0.769 2.209-0.223 1.889-1.826 3.187-1.182 4.134-0.712 0.843 0.417 1.265 0.627 2.154-0.434 1.552-1.853 2.807-2.119 4.634-0.98 1.437 0.896 2.778-0.475 2.834-0.534 0.204-0.212 0.541-0.221 0.754-0.018zM30.341 21.849c0.213 0.203 0.223 0.539 0.021 0.752-0.68 0.72-2.428 1.794-4.173 0.705-1.168-0.728-1.869-0.891-3.251 0.76-1.428 1.705-2.595 1.127-3.446 0.705-0.878-0.435-1.571-0.779-2.919 0.524-1.638 1.584-2.733 0.871-3.532 0.35-0.774-0.504-1.285-0.837-2.484 0.252-0.261 0.238-0.467 0.454-0.648 0.645-0.436 0.46-0.812 0.856-1.452 0.88-0.527 0.019-1.144-0.211-2.357-0.88-0.568-0.313-1.073-0.388-1.543-0.229-0.915 0.309-1.411 1.413-1.416 1.424-0.088 0.2-0.284 0.319-0.489 0.319-0.071 0-0.144-0.014-0.213-0.045-0.269-0.118-0.393-0.43-0.276-0.7 0.027-0.063 0.681-1.541 2.045-2.006 0.762-0.26 1.572-0.158 2.408 0.303 0.685 0.377 1.435 0.762 1.804 0.748 0.188-0.007 0.329-0.14 0.716-0.548 0.184-0.194 0.414-0.437 0.705-0.701 1.808-1.644 2.95-0.9 3.784-0.357 0.762 0.496 1.182 0.77 2.208-0.223 1.889-1.826 3.187-1.182 4.134-0.712 0.842 0.417 1.265 0.627 2.154-0.434 1.552-1.853 2.808-2.119 4.634-0.98 1.437 0.896 2.778-0.475 2.834-0.534 0.204-0.212 0.541-0.221 0.754-0.018z"></path>
</symbol>
<symbol id="drink" width="40" height="40" x="0" y="0" viewBox="0 0 32 32">
<path d="M23.572 14.243c-1.416 1.216-3.267 2.039-5.371 2.395v10.695c1.914 0.094 3.653 0.307 4.94 0.61 1.756 0.412 2.573 0.952 2.573 1.697 0 0.819-0.997 1.396-3.139 1.818-1.758 0.346-4.082 0.538-6.551 0.542 0 0-0.040 0-0.049 0v0c-2.469-0.004-4.794-0.196-6.551-0.542-2.142-0.422-3.139-1-3.139-1.818 0-0.745 0.818-1.285 2.574-1.697 1.288-0.303 3.027-0.516 4.941-0.61v-10.695c-2.104-0.355-3.955-1.179-5.372-2.395-1.632-1.401-2.596-3.261-2.788-5.379-0.448-4.923 1.871-8.473 1.97-8.621 0.101-0.152 0.271-0.243 0.453-0.243h15.874c0.182 0 0.352 0.091 0.453 0.243 0.099 0.149 2.418 3.699 1.971 8.621-0.193 2.118-1.157 3.978-2.788 5.379zM17.112 29.249l-0.002-13.088c0-0.301 0.244-0.544 0.544-0.544 0.008 0 0.015 0.001 0.023 0.001 0.001 0 0.001 0 0.002 0 3.415-0.481 7.204-2.533 7.597-6.852 0.348-3.831-1.162-6.828-1.647-7.677h-15.259c-0.485 0.85-1.995 3.846-1.647 7.677 0.393 4.319 4.182 6.371 7.597 6.852 0.001 0 0.001 0 0.002 0 0.008 0 0.015-0.001 0.023-0.001 0.3 0 0.544 0.244 0.544 0.544l-0.001 13.015c0 0.3-0.244 0.544-0.544 0.544s-0.544-0.244-0.544-0.544v-0.755c-1.664 0.084-3.2 0.262-4.374 0.509-1.386 0.292-1.857 0.585-2.005 0.71 0.202 0.171 0.89 0.518 2.565 0.815 1.651 0.292 3.785 0.454 6.014 0.456 2.229-0.003 4.363-0.164 6.014-0.456 1.675-0.296 2.362-0.644 2.565-0.815-0.147-0.125-0.619-0.418-2.005-0.71-1.173-0.247-2.709-0.425-4.373-0.509v0.827c0 0.301-0.244 0.544-0.544 0.544s-0.544-0.244-0.544-0.544zM23.483 7.88c0.298 0.003 0.537 0.261 0.537 0.56 0 0.067-0.012 1.665-1.060 3.268-0.935 1.431-3.84 3.147-6.984 3.147s-6.001-1.716-6.936-3.147c-1.048-1.603-1.060-3.2-1.060-3.268 0-0.299 0.241-0.541 0.539-0.544l10.981-0.016c0.3 0.003 0.542 0.249 0.539 0.549s-0.246 0.539-0.544 0.539l-10.374 0.010c0.213 1.349 1.305 4.74 6.88 4.861 5.575-0.121 6.666-3.512 6.88-4.861l-0.611-0.010c-0.301-0.004-0.541-0.25-0.538-0.55s0.249-0.543 0.55-0.538h1.202z"></path>
</symbol>
<symbol id="main-meals" width="40" height="40" x="0" y="0" viewBox="0 0 32 32">
<path d="M32 19.406c0 1.418-0.924 2.637-2.276 3.105 0.074 0.28 0.207 2.296 0.168 3.33-0.069 1.834-0.334 2.59-0.949 2.698-0.184 0.032-25.703 0.032-25.887 0-0.614-0.108-0.88-0.864-0.949-2.698-0.039-1.033 0.094-3.049 0.168-3.33-1.352-0.468-2.276-1.687-2.276-3.105 0-1.541 1.116-2.839 2.622-3.204-0.105-0.399-0.148-0.931-0.127-1.594 0.014-0.534 0.172-3.348 1.928-6.012 1.002-1.521 2.346-2.727 3.994-3.585 2.004-1.043 4.468-1.572 7.323-1.572h0.521c2.856 0 5.32 0.529 7.323 1.572 1.648 0.858 2.992 2.064 3.994 3.585 1.755 2.664 1.914 5.478 1.928 6.012 0.021 0.663-0.022 1.195-0.127 1.594 1.505 0.365 2.622 1.664 2.622 3.204zM3.492 14.636c-0.022 0.712 0.061 1.257 0.144 1.463h24.728c0.083-0.206 0.166-0.751 0.144-1.463-0.027-1.044-0.601-10.2-12.247-10.2h-0.521c-11.646 0-12.22 9.156-12.247 10.2zM28.902 25.58c0.025-0.967-0.129-2.792-0.173-2.915h-25.458c-0.044 0.123-0.198 1.948-0.173 2.915 0.035 1.341 0.176 1.827 0.242 1.984 0.532 0.038 24.788 0.038 25.32 0 0.066-0.157 0.207-0.643 0.242-1.984zM29.026 21.667c1.152-0.222 1.976-1.156 1.976-2.261 0-1.273-1.116-2.309-2.488-2.309h-25.029c-1.372 0-2.488 1.036-2.488 2.309 0 1.105 0.824 2.039 1.976 2.261h26.052z"></path>
</symbol>
<symbol id="specialites" width="40" height="40" x="0" y="0" viewBox="0 0 32 32">
<path d="M23.682 8.185c-1.382 1.762 0.247 4.347 0.263 4.372 0.159 0.246 0.088 0.573-0.157 0.732-0.089 0.057-0.188 0.085-0.287 0.085-0.174 0-0.344-0.085-0.445-0.242-0.085-0.131-2.057-3.242-0.207-5.6 1.284-1.638-0.529-3.866-0.555-3.897-0.187-0.224-0.157-0.557 0.067-0.745s0.558-0.158 0.745 0.067c0.024 0.029 0.596 0.719 0.961 1.681 0.511 1.347 0.378 2.574-0.386 3.548zM27.234 8.185c-1.382 1.762 0.247 4.347 0.263 4.372 0.159 0.246 0.088 0.573-0.157 0.732-0.089 0.057-0.188 0.085-0.287 0.085-0.174 0-0.344-0.085-0.445-0.242-0.085-0.131-2.057-3.242-0.207-5.6 1.287-1.641-0.536-3.875-0.555-3.897-0.187-0.224-0.157-0.557 0.067-0.745s0.558-0.158 0.745 0.067c0.024 0.029 0.596 0.719 0.961 1.681 0.511 1.347 0.378 2.574-0.386 3.548zM5.013 8.43c-1.382 1.762 0.247 4.347 0.263 4.372 0.159 0.245 0.088 0.573-0.157 0.732-0.089 0.057-0.188 0.085-0.287 0.085-0.174 0-0.344-0.085-0.445-0.242-0.085-0.131-2.057-3.242-0.207-5.6 1.287-1.641-0.536-3.875-0.555-3.897-0.187-0.224-0.157-0.557 0.067-0.745s0.558-0.158 0.745 0.066c0.024 0.029 0.596 0.719 0.961 1.681 0.511 1.347 0.378 2.574-0.386 3.548zM8.565 8.43c-1.382 1.762 0.247 4.347 0.263 4.372 0.159 0.245 0.088 0.573-0.157 0.732-0.089 0.057-0.188 0.085-0.287 0.085-0.174 0-0.344-0.085-0.445-0.242-0.085-0.131-2.057-3.242-0.207-5.6 1.287-1.641-0.536-3.875-0.555-3.897-0.187-0.224-0.157-0.557 0.067-0.745s0.558-0.158 0.745 0.066c0.024 0.029 0.596 0.719 0.961 1.681 0.511 1.347 0.378 2.574-0.386 3.548zM30.243 25.058c0.968 0 1.757 0.788 1.757 1.757v0.662c0 0.969-0.788 1.758-1.757 1.758h-28.487c-0.969 0-1.757-0.788-1.757-1.758v-0.662c0-0.969 0.788-1.757 1.757-1.757h1.123c0.264-6.602 5.433-11.962 11.954-12.528v-0.539c-0.662-0.396-1.073-1.106-1.073-1.895 0-1.222 0.994-2.216 2.216-2.216h0.048c1.222 0 2.216 0.994 2.216 2.216 0 0.789-0.411 1.499-1.073 1.895v0.539c6.521 0.566 11.691 5.926 11.954 12.528h1.122zM14.818 10.096c0 0.477 0.289 0.899 0.737 1.075 0.202 0.080 0.336 0.275 0.336 0.493v0.817h0.217v-0.817c0-0.218 0.133-0.413 0.336-0.493 0.448-0.176 0.737-0.598 0.737-1.075 0-0.638-0.519-1.157-1.158-1.157h-0.048c-0.638 0-1.158 0.519-1.158 1.157zM30.243 28.175c0.385 0 0.698-0.314 0.698-0.699v0-0.662c0-0.385-0.313-0.698-0.698-0.698l-5.176 0.001c-0.292 0-0.529-0.237-0.529-0.529s0.237-0.529 0.529-0.529h2.994c-0.277-6.384-5.543-11.494-11.988-11.52h-0.146c-6.444 0.026-11.711 5.137-11.988 11.52h17.705c0.292 0 0.529 0.237 0.529 0.529s-0.237 0.529-0.529 0.529h-19.004c-0.005 0-0.009-0.001-0.014-0.001h-0.87c-0.385 0-0.698 0.313-0.698 0.698v0.662c0 0.386 0.313 0.699 0.698 0.699h28.487z"></path>
</symbol>
</svg>
